<svg xmlns="http://www.w3.org/2000/svg" width="1440" height="1040" viewBox="0 0 1440 1040" role="img" aria-labelledby="title desc"><title id="title">Project · API service · Codex Worker</title><desc id="desc">Project details, worker availability, configuration and recent activity.</desc>
<defs><linearGradient id="bg" x2="0" y2="1"><stop stop-color="#111827"/><stop offset="1" stop-color="#0b1020"/></linearGradient><linearGradient id="sidebar" x2="0" y2="1"><stop stop-color="#121725"/><stop offset="1" stop-color="#101521"/></linearGradient><linearGradient id="accent" x2="1" y2="1"><stop stop-color="#7f56d9"/><stop offset="1" stop-color="#9e77ed"/></linearGradient><filter id="shadow" x="-10%" y="-10%" width="120%" height="130%"><feDropShadow dx="0" dy="2" stdDeviation="4" flood-color="#000" flood-opacity=".22"/></filter>
<style>
.ui{font-family:Inter,-apple-system,BlinkMacSystemFont,"Segoe UI",sans-serif;fill:#f5f5f6}.h1{font-size:27px;font-weight:650}.h2{font-size:16px;font-weight:650}.h3{font-size:14px;font-weight:650}.brand{font-size:15px;font-weight:700}.micro{font-size:10px;fill:#717585}.micro-bright{font-size:11px;fill:#c7c9d1}.nav{font-size:14px;fill:#a5a7b2}.nav-active{font-size:14px;fill:#f5f5f6;font-weight:600}.icon{font-size:16px;fill:#9498a6}.icon-active{font-size:16px;fill:#b692f6}.body{font-size:13px;fill:#d0d5dd}.small{font-size:12px;fill:#9498a6}.small-strong{font-size:12px;fill:#d0d5dd;font-weight:600}.muted{font-size:13px;fill:#9498a6}.faint{font-size:11px;fill:#717585}.label{font-size:10px;fill:#85899a;font-weight:700;letter-spacing:1px}.chip{font-size:11px;font-weight:650}.card{fill:#171d2b;stroke:#282e3d}.surface{fill:#1d2433;stroke:#303748}.rule{stroke:#282d3b}.link{fill:#b692f6;font-size:13px}.link-small{fill:#b692f6;font-size:11px}.good{fill:#32d583}.warn{fill:#fdb022}.bad{fill:#fda29b}.info{fill:#84caff}.neutral{fill:#9498a6}
</style></defs><rect width="1440" height="1040" fill="url(#bg)"/><rect width="244" height="1040" fill="url(#sidebar)"/>
<rect x="25" y="24" width="34" height="34" rx="10" fill="url(#accent)"/><path d="M35 42h14M42 35v14" stroke="#fff" stroke-width="2" stroke-linecap="round"/>
<text x="70" y="39" class="ui brand" >Codex Worker</text><text x="70" y="54" class="ui micro" >CONTROL CENTER</text>
<text x="26" y="144" class="ui icon" >⌂</text><text x="53" y="144" class="ui nav" >Home</text><rect x="13" y="169" width="218" height="40" rx="8" fill="#27213a"/><rect x="13" y="169" width="3" height="40" rx="1.5" fill="#9e77ed"/><text x="26" y="194" class="ui icon-active" >▦</text><text x="53" y="194" class="ui nav-active" >Projects</text><text x="26" y="244" class="ui icon" >◉</text><text x="53" y="244" class="ui nav" >Workers</text><text x="26" y="294" class="ui icon" >▤</text><text x="53" y="294" class="ui nav" >Executions</text><text x="26" y="344" class="ui icon" >⚙</text><text x="53" y="344" class="ui nav" >Settings</text>
<line x1="20" y1="948" x2="224" y2="948" stroke="#282d3b"/>
<circle cx="31" cy="976" r="5" fill="#32d583"/><text x="46" y="980" class="ui small-strong" >Server live</text><text x="25" y="1003" class="ui micro" >Last updated</text><text x="25" y="1022" class="ui micro-bright" >08/10/2026 19:00:00</text><g class="ui"><text x="280" y="31" class="ui small" >Projects  /  API service</text>
<text x="280" y="70" class="ui h1" >API service</text><text x="280" y="97" class="ui muted" >acme/api-service  ↗   ·   Build and validate service changes</text>
<rect x="1084" y="38" width="68" height="24" rx="12" fill="#153328"/><text x="1118" y="54" text-anchor="middle" class="ui chip" fill="#6ce9a6">Enabled</text><rect x="1162" y="38" width="60" height="24" rx="12" fill="#153328"/><text x="1192" y="54" text-anchor="middle" class="ui chip" fill="#6ce9a6">Ready</text><rect x="1240" y="26" width="78" height="40" rx="8" fill="#1d2433" stroke="#3a4254" /><text x="1255" y="51" class="ui small-strong" fill="#d0d5dd">Edit</text><rect x="1326" y="26" width="84" height="40" rx="8" fill="#1d2433" stroke="#3a4254" /><text x="1341" y="51" class="ui small-strong" fill="#d0d5dd">More  ⌄</text>
<rect x="280" y="124" width="1130" height="70" rx="10" fill="#171d2b" stroke="#282e3d" /><text x="301" y="151" class="ui faint" >Project revision</text><text x="301" y="176" class="ui small-strong" >rev. 12</text><line x1="475" y1="139" x2="475" y2="179" stroke="#303748" stroke-width="1"/><text x="499" y="151" class="ui faint" >Default branch</text><text x="499" y="176" class="ui small-strong" >main</text><line x1="700" y1="139" x2="700" y2="179" stroke="#303748" stroke-width="1"/><text x="724" y="151" class="ui faint" >Issue labels</text><text x="724" y="176" class="ui small-strong" >ready · blocked</text><line x1="940" y1="139" x2="940" y2="179" stroke="#303748" stroke-width="1"/><text x="964" y="151" class="ui faint" >Discovery</text><text x="964" y="176" class="ui small-strong" >Automatic · every 5 min</text><text x="1290" y="166" class="ui link-small" >Edit configuration →</text>
<rect x="280" y="211" width="702" height="292" rx="10" fill="#171d2b" stroke="#282e3d" /><text x="304" y="242" class="ui h2" >Project configuration</text><text x="304" y="280" class="ui faint" >Repository</text><text x="504" y="280" class="ui link" >acme/api-service  ↗</text><line x1="304" y1="296" x2="958" y2="296" stroke="#282d3b" stroke-width="1"/><text x="304" y="326" class="ui faint" >Default branch</text><text x="504" y="326" class="ui body" >main</text><line x1="304" y1="342" x2="958" y2="342" stroke="#282d3b" stroke-width="1"/><text x="304" y="372" class="ui faint" >Project status</text><rect x="504" y="354" width="68" height="24" rx="12" fill="#153328"/><text x="538" y="370" text-anchor="middle" class="ui chip" fill="#6ce9a6">Enabled</text><rect x="580" y="354" width="60" height="24" rx="12" fill="#153328"/><text x="610" y="370" text-anchor="middle" class="ui chip" fill="#6ce9a6">Ready</text><line x1="304" y1="389" x2="958" y2="389" stroke="#282d3b" stroke-width="1"/><text x="304" y="418" class="ui faint" >Automatic discovery</text><text x="504" y="418" class="ui body" >Enabled · every 5 minutes</text><line x1="304" y1="435" x2="958" y2="435" stroke="#282d3b" stroke-width="1"/><text x="304" y="465" class="ui faint" >Requirements</text><text x="504" y="465" class="ui body" >Build and test using configured commands.</text>
<rect x="1002" y="211" width="408" height="292" rx="10" fill="#171d2b" stroke="#282e3d" /><text x="1026" y="242" class="ui h2" >Worker availability</text><text x="1026" y="278" class="ui small-strong" >Build Worker · EU 02</text><circle cx="1031" cy="298" r="5" class="dot good"/><text x="1044" y="302" class="ui small" >Connected · Ready</text><text x="1026" y="327" class="ui faint" >Capacity</text><text x="1386" y="327" class="ui small-strong" text-anchor="end">1 / 2 slots</text><rect x="1026" y="343" width="360" height="5" rx="3" fill="#303748" stroke="#303748" /><rect x="1026" y="343" width="180" height="5" rx="3" fill="#7f56d9" stroke="#7f56d9" /><line x1="1026" y1="367" x2="1386" y2="367" stroke="#282d3b" stroke-width="1"/><text x="1026" y="397" class="ui h3" >Latest execution</text><text x="1026" y="426" class="ui small-strong" >#482 · API timeout fix</text><rect x="1304" y="409" width="82" height="22" rx="11" fill="#153328"/><text x="1345" y="424" text-anchor="middle" class="ui chip" fill="#6ce9a6">Completed</text><text x="1026" y="450" class="ui faint" >08/10/2026 14:18:33</text><text x="1026" y="481" class="ui link-small" >View execution →</text>
<text x="280" y="546" class="ui h2" >Recent executions</text><text x="492" y="546" class="ui small" >Latest recorded project activity</text><text x="1276" y="546" class="ui link-small" >View all →</text>
<rect x="280" y="563" width="1130" height="319" rx="10" fill="#171d2b" stroke="#282e3d" /><rect x="281" y="564" width="1128" height="43" rx="10" fill="#1d2433"/>
<text x="302" y="591" class="ui label" >ISSUE / EXECUTION</text><text x="832" y="591" class="ui label" >STATE</text><text x="1000" y="591" class="ui label" >WORKER</text><text x="1210" y="591" class="ui label" >CREATED</text>
<line x1="281" y1="607" x2="1409" y2="607" stroke="#282d3b" stroke-width="1"/><text x="302" y="641" class="ui small-strong" >#482 · API timeout fix</text><text x="302" y="661" class="ui faint" >exec_8b21c9f4</text><rect x="832" y="622" width="82" height="24" rx="12" fill="#153328"/><text x="873" y="638" text-anchor="middle" class="ui chip" fill="#6ce9a6">Completed</text><text x="1000" y="641" class="ui small" >Build Worker · EU 02</text><text x="1210" y="641" class="ui small" >08/10/2026 14:18:33</text>
<line x1="281" y1="679" x2="1409" y2="679" stroke="#282d3b" stroke-width="1"/><text x="302" y="713" class="ui small-strong" >#477 · Update docs</text><text x="302" y="733" class="ui faint" >exec_72c034ab</text><rect x="832" y="694" width="68" height="24" rx="12" fill="#202840"/><text x="866" y="710" text-anchor="middle" class="ui chip" fill="#84caff">Running</text><text x="1000" y="713" class="ui small" >Docs Worker · US 01</text><text x="1210" y="713" class="ui small" >08/10/2026 13:42:08</text>
<line x1="281" y1="751" x2="1409" y2="751" stroke="#282d3b" stroke-width="1"/><text x="302" y="785" class="ui small-strong" >#451 · Release notes</text><text x="302" y="805" class="ui faint" >exec_64f1a321</text><rect x="832" y="766" width="57" height="24" rx="12" fill="#3c2026"/><text x="860.5" y="782" text-anchor="middle" class="ui chip" fill="#fda29b">Failed</text><text x="1000" y="785" class="ui small" >Build Worker · EU 02</text><text x="1210" y="785" class="ui small" >07/10/2026 17:10:20</text>
<line x1="281" y1="823" x2="1409" y2="823" stroke="#282d3b" stroke-width="1"/><text x="302" y="858" class="ui faint" >Showing 3 recent executions</text><text x="1276" y="858" class="ui link-small" >Open executions →</text></g></svg>
