<svg xmlns="http://www.w3.org/2000/svg" width="1440" height="1040" viewBox="0 0 1440 1040" role="img" aria-labelledby="title desc"><title id="title">Projects · Codex Worker</title><desc id="desc">Projects list with repository links, status, discovery configuration, and latest activity.</desc>
<defs><linearGradient id="bg" x2="0" y2="1"><stop stop-color="#111827"/><stop offset="1" stop-color="#0b1020"/></linearGradient><linearGradient id="sidebar" x2="0" y2="1"><stop stop-color="#121725"/><stop offset="1" stop-color="#101521"/></linearGradient><linearGradient id="accent" x2="1" y2="1"><stop stop-color="#7f56d9"/><stop offset="1" stop-color="#9e77ed"/></linearGradient><filter id="shadow" x="-10%" y="-10%" width="120%" height="130%"><feDropShadow dx="0" dy="2" stdDeviation="4" flood-color="#000" flood-opacity=".22"/></filter>
<style>
.ui{font-family:Inter,-apple-system,BlinkMacSystemFont,"Segoe UI",sans-serif;fill:#f5f5f6}.h1{font-size:27px;font-weight:650}.h2{font-size:16px;font-weight:650}.h3{font-size:14px;font-weight:650}.brand{font-size:15px;font-weight:700}.micro{font-size:10px;fill:#717585}.micro-bright{font-size:11px;fill:#c7c9d1}.nav{font-size:14px;fill:#a5a7b2}.nav-active{font-size:14px;fill:#f5f5f6;font-weight:600}.icon{font-size:16px;fill:#9498a6}.icon-active{font-size:16px;fill:#b692f6}.body{font-size:13px;fill:#d0d5dd}.small{font-size:12px;fill:#9498a6}.small-strong{font-size:12px;fill:#d0d5dd;font-weight:600}.muted{font-size:13px;fill:#9498a6}.faint{font-size:11px;fill:#717585}.label{font-size:10px;fill:#85899a;font-weight:700;letter-spacing:1px}.chip{font-size:11px;font-weight:650}.card{fill:#171d2b;stroke:#282e3d}.surface{fill:#1d2433;stroke:#303748}.rule{stroke:#282d3b}.link{fill:#b692f6;font-size:13px}.link-small{fill:#b692f6;font-size:11px}.good{fill:#32d583}.warn{fill:#fdb022}.bad{fill:#fda29b}.info{fill:#84caff}.neutral{fill:#9498a6}
</style></defs><rect width="1440" height="1040" fill="url(#bg)"/><rect width="244" height="1040" fill="url(#sidebar)"/>
<rect x="25" y="24" width="34" height="34" rx="10" fill="url(#accent)"/><path d="M35 42h14M42 35v14" stroke="#fff" stroke-width="2" stroke-linecap="round"/>
<text x="70" y="39" class="ui brand" >Codex Worker</text><text x="70" y="54" class="ui micro" >CONTROL CENTER</text>
<text x="26" y="144" class="ui icon" >⌂</text><text x="53" y="144" class="ui nav" >Home</text><rect x="13" y="169" width="218" height="40" rx="8" fill="#27213a"/><rect x="13" y="169" width="3" height="40" rx="1.5" fill="#9e77ed"/><text x="26" y="194" class="ui icon-active" >▦</text><text x="53" y="194" class="ui nav-active" >Projects</text><text x="26" y="244" class="ui icon" >◉</text><text x="53" y="244" class="ui nav" >Workers</text><text x="26" y="294" class="ui icon" >▤</text><text x="53" y="294" class="ui nav" >Executions</text><text x="26" y="344" class="ui icon" >⚙</text><text x="53" y="344" class="ui nav" >Settings</text>
<line x1="20" y1="948" x2="224" y2="948" stroke="#282d3b"/>
<circle cx="31" cy="976" r="5" fill="#32d583"/><text x="46" y="980" class="ui small-strong" >Server live</text><text x="25" y="1003" class="ui micro" >Last updated</text><text x="25" y="1022" class="ui micro-bright" >08/10/2026 19:00:00</text><g class="ui"><text x="280" y="51" class="ui h1" >Projects</text><text x="280" y="78" class="ui muted" >Manage project repositories, discovery settings and recent execution activity.</text><rect x="1292" y="31" width="118" height="40" rx="8" fill="url(#accent)" stroke="#7f56d9" /><text x="1307" y="56" class="ui small-strong" fill="#fff">＋ Add project</text><rect x="280" y="106" width="1130" height="65" rx="10" fill="#171d2b" stroke="#282e3d" /><text x="302" y="132" class="ui h3" >Project inventory</text><text x="302" y="153" class="ui small" >4 configured projects · Activity is based on available execution records.</text><text x="946" y="143" class="ui faint" >Search</text><rect x="996" y="119" width="188" height="38" rx="8" fill="#1d2433" stroke="#3a4254" /><text x="1012" y="143" class="ui small" >⌕  Project name</text><text x="1193" y="143" class="ui faint" >Status</text><rect x="1244" y="119" width="146" height="38" rx="8" fill="#1d2433" stroke="#3a4254" /><text x="1260" y="143" class="ui small-strong" >All statuses  ⌄</text>
<rect x="280" y="187" width="1130" height="606" rx="11" fill="#171d2b" stroke="#282e3d" filter="url(#shadow)"/><rect x="281" y="188" width="1128" height="48" rx="10" fill="#1d2433"/>
<text x="302" y="218" class="ui label" >PROJECT</text><text x="570" y="218" class="ui label" >REPOSITORY</text><text x="790" y="218" class="ui label" >STATUS</text><text x="966" y="218" class="ui label" >DISCOVERY</text><text x="1175" y="218" class="ui label" >LATEST ACTIVITY</text>
<line x1="281" y1="304" x2="1409" y2="304" stroke="#282d3b" stroke-width="1"/><circle cx="308" cy="322" r="16" fill="#27213a"/><text x="308" y="327" text-anchor="middle" class="ui small-strong">A</text><text x="336" y="319" class="ui small-strong" >API service</text><text x="336" y="339" class="ui faint" >Build and validate service changes</text><text x="570" y="319" class="ui link" >acme/api-service ↗</text><text x="570" y="339" class="ui faint" >⑂  main</text><rect x="790" y="304" width="68" height="24" rx="12" fill="#153328"/><text x="824" y="320" text-anchor="middle" class="ui chip" fill="#6ce9a6">Enabled</text><rect x="870" y="304" width="60" height="24" rx="12" fill="#153328"/><text x="900" y="320" text-anchor="middle" class="ui chip" fill="#6ce9a6">Ready</text><text x="950" y="319" class="ui small-strong" >Automatic</text><text x="950" y="339" class="ui faint" >Every 5 minutes</text><text x="1175" y="319" class="ui small-strong" >#482 · API timeout fix</text><text x="1175" y="339" class="ui faint" >08/10/2026 14:18:33</text><rect x="1320" y="326" width="72" height="22" rx="11" fill="#153328"/><text x="1356" y="342" text-anchor="middle" class="ui chip" fill="#6ce9a6">Completed</text><line x1="281" y1="406" x2="1409" y2="406" stroke="#282d3b" stroke-width="1"/><circle cx="308" cy="424" r="16" fill="#27213a"/><text x="308" y="429" text-anchor="middle" class="ui small-strong">D</text><text x="336" y="421" class="ui small-strong" >Documentation</text><text x="336" y="441" class="ui faint" >Product and developer documentation</text><text x="570" y="421" class="ui link" >acme/docs ↗</text><text x="570" y="441" class="ui faint" >⑂  main</text><rect x="790" y="406" width="68" height="24" rx="12" fill="#153328"/><text x="824" y="422" text-anchor="middle" class="ui chip" fill="#6ce9a6">Enabled</text><rect x="870" y="406" width="60" height="24" rx="12" fill="#153328"/><text x="900" y="422" text-anchor="middle" class="ui chip" fill="#6ce9a6">Ready</text><text x="950" y="421" class="ui small-strong" >Manual</text><text x="950" y="441" class="ui faint" >On demand</text><text x="1175" y="421" class="ui small-strong" >#477 · Update docs</text><text x="1175" y="441" class="ui faint" >08/10/2026 13:42:08</text><rect x="1320" y="428" width="72" height="22" rx="11" fill="#202840"/><text x="1356" y="421" text-anchor="middle" class="ui chip" fill="#84caff">Running</text><line x1="281" y1="508" x2="1409" y2="508" stroke="#282d3b" stroke-width="1"/><circle cx="308" cy="526" r="16" fill="#252b39"/><text x="308" y="531" text-anchor="middle" class="ui small-strong">V</text><text x="336" y="523" class="ui small-strong" >Vision pipeline</text><text x="336" y="543" class="ui faint" >Image processing and model tooling</text><text x="570" y="523" class="ui link" >acme/vision ↗</text><text x="570" y="543" class="ui faint" >⑂  develop</text><rect x="790" y="508" width="71" height="24" rx="12" fill="#252b39"/><text x="825.5" y="524" text-anchor="middle" class="ui chip" fill="#c7c9d1">Disabled</text><rect x="870" y="508" width="60" height="24" rx="12" fill="#252b39"/><text x="900" y="524" text-anchor="middle" class="ui chip" fill="#c7c9d1">—</text><text x="966" y="523" class="ui small-strong" >Not configured</text><text x="966" y="543" class="ui faint" >No policy configured</text><text x="1175" y="523" class="ui small-strong" >No recorded activity</text><text x="1320" y="543" class="ui faint" >—</text><line x1="281" y1="610" x2="1409" y2="610" stroke="#282d3b" stroke-width="1"/><circle cx="308" cy="628" r="16" fill="#27213a"/><text x="308" y="633" text-anchor="middle" class="ui small-strong">R</text><text x="336" y="625" class="ui small-strong" >Release tools</text><text x="336" y="645" class="ui faint" >Packaging and release automation</text><text x="570" y="625" class="ui link" >acme/release-tools ↗</text><text x="570" y="645" class="ui faint" >⑂  main</text><rect x="790" y="610" width="68" height="24" rx="12" fill="#153328"/><text x="824" y="626" text-anchor="middle" class="ui chip" fill="#6ce9a6">Enabled</text><rect x="870" y="610" width="83" height="24" rx="12" fill="#3a2c17"/><text x="911.5" y="626" text-anchor="middle" class="ui chip" fill="#fdb022">Not ready</text><text x="966" y="625" class="ui small-strong" >Automatic</text><text x="966" y="645" class="ui faint" >Every 15 minutes</text><text x="1175" y="625" class="ui small-strong" >#451 · Release notes</text><text x="1175" y="645" class="ui faint" >07/10/2026 17:10:20</text><rect x="1320" y="632" width="72" height="22" rx="11" fill="#3c2026"/><text x="1356" y="648" text-anchor="middle" class="ui chip" fill="#fda29b">Failed</text>
<line x1="281" y1="743" x2="1409" y2="743" stroke="#282d3b" stroke-width="1"/><text x="302" y="773" class="ui small" >Showing 4 projects</text><text x="1252" y="773" class="ui small-strong" >‹   1   2   3   ›</text></g></svg>
